<svg xmlns="http://www.w3.org/2000/svg" xmlns:xlink="http://www.w3.org/1999/xlink" width="80" height="18.808" viewBox="0 0 80 18.808"><defs><clipPath id="a"><path d="M0-51.987H80V-70.795H0Z" transform="translate(0 70.795)" fill="#fff"/></clipPath></defs><g transform="translate(0 0)" clip-path="url(#a)"><g transform="translate(0 0)"><path d="M-221.124-18.161a.788.788,0,0,0-.788-.788h-4.141v-4.989a.788.788,0,0,0-.788-.788.788.788,0,0,0-.788.788v4.989h-4.141a.788.788,0,0,0-.788.788.788.788,0,0,0,.788.788h4.141v4.989a.788.788,0,0,0,.788.788.788.788,0,0,0,.788-.788v-4.989h4.141a.788.788,0,0,0,.788-.788m-10.606-5.428a.788.788,0,0,0-.354-1.056.788.788,0,0,0-1.056.354l-4.107,8.255-4.127-8.26a.788.788,0,0,0-1.057-.353.788.788,0,0,0-.353,1.057l4.765,9.538v7.327a.788.788,0,0,0,.788.788.788.788,0,0,0,.788-.788v-7.388Zm-12.208-.319a.788.788,0,0,0-.788-.788h-8.828a.788.788,0,0,0-.788.788.788.788,0,0,0,.788.788h3.626v16.4a.788.788,0,0,0,.788.788.788.788,0,0,0,.788-.788v-16.4h3.626a.788.788,0,0,0,.788-.788m-11.57,12.57V-23.922a.8.8,0,0,0-.8-.786h0a.775.775,0,0,0-.77.79v12.582A3.58,3.58,0,0,1-260.338-7.5a3.592,3.592,0,0,1-3.27-3.837V-23.927a.788.788,0,0,0-.788-.788.788.788,0,0,0-.788.788v12.591a5.159,5.159,0,0,0,4.846,5.413c2.672,0,4.83-2.428,4.83-5.415m-12,4.627V-19.3a5.159,5.159,0,0,0-4.845-5.413c-2.672,0-4.814,2.428-4.814,5.415V-6.716a.788.788,0,0,0,.788.786h0a.772.772,0,0,0,.767-.79v-7.848h6.526v7.858a.788.788,0,0,0,.788.788.788.788,0,0,0,.788-.788m-1.576-9.433h-6.526V-19.3a3.582,3.582,0,0,1,3.257-3.837,3.592,3.592,0,0,1,3.27,3.837Zm-17.979,8.59v-6.956h5.656a.788.788,0,0,0,.788-.788.788.788,0,0,0-.788-.788h-5.656v-7.026h6.79a.788.788,0,0,0,.788-.788.788.788,0,0,0-.788-.788h-7.578a.788.788,0,0,0-.788.788V-6.767a.788.788,0,0,0,.788.788h7.578a.788.788,0,0,0,.788-.788.788.788,0,0,0-.788-.788Zm-6.453-8.267a5.354,5.354,0,0,0,1.556-3.841c0-2.782-1.983-5.046-4.422-5.046l-3.96.006a.788.788,0,0,0-.787.788v17.2a.788.788,0,0,0,.231.557.787.787,0,0,0,.557.23h0l5.142-.005c2.478,0,4.494-2.3,4.494-5.132a5.182,5.182,0,0,0-2.811-4.758m-.02-3.841a3.244,3.244,0,0,1-2.719,3.467h-3.3v-6.933l3.172,0c1.569,0,2.845,1.557,2.845,3.47m1.255,8.6c0,1.961-1.309,3.556-2.919,3.556l-4.354,0v-7.113h3.172q.082,0,.163,0h1.019c1.609,0,2.918,1.6,2.918,3.556" transform="translate(301.124 24.731)" fill="#fff"/></g></g></svg>