<svg xmlns="http://www.w3.org/2000/svg" xmlns:xlink="http://www.w3.org/1999/xlink" width="80" height="30.805" viewBox="0 0 80 30.805"><defs><clipPath id="a"><path d="M0-81.635H80V-112.44H0Z" transform="translate(0 112.44)" fill="#fff"/></clipPath></defs><g transform="translate(0 0)" clip-path="url(#a)"><g transform="translate(0 0)"><path d="M-208.6-34.609h.355l0-4.617h-.355c0,.267-.039.8-.63.8-.887,0-1.519-1.107-3.511-1.106a4.1,4.1,0,0,0-4.337,4.413c0,4.924,7.87,2.629,7.873,7.423A2.749,2.749,0,0,1-212-24.67c-2.662,0-4.208-3.207-4.682-5.524h-.355l0,5.457h.355a.686.686,0,0,1,.729-.759c.789,0,2.407,1.065,4.122,1.064,2.781,0,4.516-1.617,4.514-5.172,0-4.764-7.989-3.244-7.991-6.93a2.661,2.661,0,0,1,2.622-2.8c2.485,0,3.59,2.549,4.084,4.724m-18.452,4.549,0-2.618,8.982,0c-.031-3.367-3.03-6.607-6.177-6.543-3.536,0-6.591,3.183-6.589,7.392,0,4.052,2.85,7.075,6.686,7.073,3.686,0,5.513-2.372,6.17-5.458h-.307c-.578,2.672-2.437,5.05-4.965,5.051-2.787,0-3.8-2.771-3.8-4.891m0-2.952v-3.078a2.719,2.719,0,0,1,2.6-2.916,2.7,2.7,0,0,1,2.6,2.913v3.079Zm-3.333,7.587h-1.974l-.01-22.245c-.539.936-1.595.936-3.723.937h-1.794v.292h1.973l.01,21.017h-1.973v.293l7.49,0Zm-8.376-14.043a3.623,3.623,0,0,0-2.307,1.373,6.023,6.023,0,0,0-3.746-1.12c-2.518,0-5.214,1.717-5.212,4.554a4.053,4.053,0,0,0,2.489,3.8v.062a3.355,3.355,0,0,0-2.995,3.587,2.965,2.965,0,0,0,1.949,3.116l.164.062c-1.2.344-2.741,1.592-2.74,3.088,0,2.307,2.609,4.082,5.936,4.081a6.549,6.549,0,0,0,6.889-6.737c0-1.522-2.109-3.716-4.377-3.715l-4.975,0a1.8,1.8,0,0,1-1.768-1.487c-.017-1.237,1.144-1.756,2.426-1.623a5.878,5.878,0,0,1,.989.187,3.66,3.66,0,0,0,1.229.186c2.577,0,5.333-1.53,5.332-4.492a4.969,4.969,0,0,0-1.367-3.27,2.991,2.991,0,0,1,2.055-1.282v.062a1.362,1.362,0,0,0-.809,1.372,1.365,1.365,0,0,0,1.379,1.433,1.487,1.487,0,0,0,1.5-1.591c0-1.091-1.14-1.652-2.039-1.651M-248.1-24l4.705,0c3,0,3.986.279,3.986,2.18,0,2.276-2.695,4.738-5.722,4.74a4.189,4.189,0,0,1-4.227-3.737A3.9,3.9,0,0,1-248.1-24m5.8-10.664c-.029,3.835-1.4,4.394-2.479,4.395-1.2,0-2.421-.745-2.422-4.485,0-2.525.86-4.239,2.418-4.24,1.409,0,2.451.746,2.482,4.331m.957-10.559.008-.05-.016-.074-.136-.141-.159-.041-.072.016-.135.149-.191.24-.167.265-.135.165-.072.107-.008.042.008.091-.119.066-.016.016-.024.042-.056.14-.1.166-.032.1-.064.041-.055.19-.136.232-.032.141-.055.091-.112.281-.08.133-.031.082-.072.075-.032-.083-.04-.116-.056-.074-.111-.091-.064-.017-.064.017-.072.05-.08-.033-.079.033h-.056l-.111.058-.072.033-.119.1-.072.017-.072.066-.127.083-.064.1-.135.1-.111.157-.035.043-.005,0h-.008l-.055.033-.072.042-.047.108-.1.041-.1.091-.008.116-.024-.058h-.032l-.048.033-.1.075-.072.091-.111.033-.072.075-.119.05-.072.091-.119.033-.032.025-.032.025-.04.075-.087.016-.08.041-.072.091h-.088l-.087.008-.184.083h-.119l-.231.008-.032-.008-.024-.025-.024-.075.04-.149.016-.091.1-.008.08-.083.048.017.048-.041.056-.016.008-.083.024-.05.079.008.064-.05.1-.091.088-.041.016-.058.072-.05h.072l.056-.091.031-.041.016-.008.1-.008.079-.066.064-.033.055-.075.079-.025.143-.124.087-.149.024-.107-.016-.074-.08-.1-.088-.042-.167-.033-.064-.025-.087.008-.159.008-.072.025-.1.025h-.023l-.056-.008-.119.074-.2.083-.167.149-.08.05-.031.025v.016l-.016.083-.016.041-.079.05-.064.042-.032.041-.032.083-.064.116-.024.034-.047.049-.3.257-.048.074-.079.008-.04.008-.032.025-.056.074-.1.041-.064.05-.08.033-.278.174h-.087l-.135.066h-.223l-.1-.033-.008-.091v-.066l.024-.058-.008-.1.048-.05.032-.091.064-.107v-.124l.127-.116.008-.083.056-.05.04-.083.04-.025.024-.074.064-.075.087-.223.1-.1.064-.132.087-.058.135-.248.08-.042.024-.1.048-.033.039-.091h.08l.111-.066.143.016.159-.066.135-.008.366-.1.167-.008.143-.049.135.008.1-.033h.191l.143-.058.1-.041.064.033h.008l.072-.016.2.008.342-.083.088.008.334-.042.135.016.247.008.1.008h.008l.071-.017.04-.041.016-.058-.032-.149-.056-.1-.055-.066-.032-.05-.079-.033-.08-.025-.072.008-.1-.016-.119.033-.072.008-.143.066-.159-.033-.358.075h-.1l-.064-.025-.1.058-.207.041-.079.033-.087-.025h-.072l-.278.058-.326.05-.278.082-.342.041-.064.041h-.056l-.008-.024.016-.05.056-.066.112-.091.024-.025.024-.149-.048-.19-.1-.108-.079-.033-.056.066-.088.107-.135.256-.119.108-.135.166-.072.041-.119.067-.278.058-.1.058-.135.033-.111.041-.135-.017h-.04l-.024.016-.072.1-.056-.05-.1.066-.048.082-.064.124-.008.041.016.075.032.041.056.025h.1l.079.008.111-.058.2-.041.088-.033h.127l.056-.017.079-.008-.016.058-.056.042-.1.2-.087.091-.079.132-.072.075-.024.133.055.058-.04.058-.087-.017-.04.082-.032.058-.04.116-.047.066-.072.1-.015.056-.025-.007-.6.472-.191.091-.048.05-.087.042-.048.066h-.111l-.064.017-.016-.025.048-.058v-.182l.047-.075-.016-.116.04-.05.04-.083.047-.049.056-.19.08-.232.032-.182-.032-.132-.079-.1-.136-.116-.111-.033-.04.008-.119.066-.135.091-.079.083-.088.049-.048.075-.119.008-.111.107-.175.108-.077.11-.01-.01-.04-.008-.024.008-.072.05-.143.108-.064.1h-.08l-.064.058-.088.041-.1.1-.072.066-.1.041-.135.1-.111.025-.1.1-.215.1-.056.066h-.087l-.039.017-.04.041-.048.067-.08.025-.215.066-.152.008-.048.016-.072.008-.1-.025-.056-.05-.008-.058v-.016l.024-.132.008-.1.055-.066v-.132l.032-.041.08-.058.047-.075.127-.2.048-.1.04-.033.135-.066.1-.091.087-.05.056-.066.032.008h.008l.04-.008.055-.05.032-.058.032-.009.032.058.079-.033.08-.025h.016l.119.033.088.008.056.066h.039l.1-.033.1-.082.056-.066.016-.058-.032-.157-.063-.132-.151-.083-.112.058-.079-.041-.1-.025-.048.008-.08.066-.079-.025-.048-.008h-.008l-.119.075h-.1l-.064.017-.055.033-.111.1-.087.05-.064.066-.088.066-.079.074-.08.041-.048.075-.056.05-.008.1-.072.033-.056.075-.071.066-.016.025-.011.039-.092.06-.1.058-.111.107-.079.058-.056.058-.048.091-.032.082-.04-.05-.063.025-.048.075-.1.025-.064.033-.318.232-.087.05h-.1l-.032-.165.008-.116.04-.141-.008-.075.04-.083.016-.1.056-.281.024-.1.072-.017.063-.058.191-.124.182-.132.128-.058.087-.074.1-.058.048-.05.151-.058.127-.058.079-.033.016-.025.016-.091-.024-.091-.056-.058-.048-.016-.04.008-.151.091-.191.133-.072.091-.294.165-.072.083-.087.033-.1.058-.079.033.008-.1.008-.207.016-.124-.008-.033-.04-.066-.072-.091-.111-.033-.1-.025-.056.008-.135.058-.191.066-.056.058-.087.033-.04.058-.2.091-.135.132-.072.025-.055.074-.088.016-.072.108-.135.075-.022.042-.042.024-.026.059-.045.024-.04.025-.018.036-.013.006-.1.091-.008.116-.024-.058h-.032l-.048.033-.1.075-.071.091-.112.033-.072.075-.119.05-.072.091-.119.033-.032.025-.032.025-.039.075-.088.016-.079.041-.072.091h-.087l-.088.008-.183.083h-.119l-.231.008-.032-.008-.024-.025-.024-.074.04-.149.016-.091.1-.008.08-.083.048.017.048-.042.056-.016.008-.083.024-.05.08.008.064-.05.1-.091.087-.042.016-.058.072-.05h.072l.056-.091.032-.041.016-.008.1-.008.08-.066.064-.033.056-.075.08-.025.143-.124.088-.149.024-.108-.016-.074-.08-.1-.088-.041-.167-.033-.063-.025-.088.008-.159.008-.072.025-.1.025h-.024l-.056-.008-.12.074-.2.083-.167.149-.079.05-.032.025v.016l-.016.083-.016.041-.079.05-.064.041-.032.041-.032.083-.064.116-.048.066-.024.091-.031.033-.056.215-.087.091-.04.083-.024.124.008.058.016.033.1.041.088.3.072-.008.048.124.143.075.064.041.047.016.127-.016.087-.025.072.05.048.008.087-.016.278-.108.064-.016.231-.133.159-.058.08-.116.1-.008.056-.05.111-.066.016-.016.016-.033.016-.066.048-.016.031.041.064-.05.088-.1.119-.149.064-.024.088-.083.055-.025.034-.134.1-.123.079-.025.072-.074.119-.066.079-.108h.016l.063.016.1-.107.143-.025.047-.083.112-.024.016-.008.032-.041.032-.041.031-.025v.1l-.04.265-.032.224-.1.082-.1.1-.056.041-.04.066h-.064l-.072.108-.063.008-.294.248-.087.041-.167.132-.064.041-.087.141-.072.116-.008.025-.008.033.032.108.056.074.056.05h.032l.032-.008.064-.033.072-.075.1-.082.127-.182.064-.066.032-.157.1.016.119-.157.167-.107.08-.066.079-.058.024.132-.056.041v.116l-.056.339.024.083.024.116.016.025.04.041.1.083.1.083.04.017.064.008.167-.017.008-.008.064-.041.072-.025.024-.008.04-.05.032-.075.1-.041.056-.042.167-.107.112-.157.1-.025.056-.058.087-.025.1-.091.086-.061-.014.053.008.041.032.091.04.149.016.033.04.05.088.058.031.1.08.05.088.042.1.082.159-.05.072.041.064.033h.024l.135-.025.087-.025.024-.033.008-.058.04-.025.072.058h.032l.055-.066.04-.033H-253l.064-.017.072-.058.072.008.016-.008.032-.016.048-.042.1-.091.04-.075h.072l.255-.174.079-.074.032-.075.056.008.032.033.064-.074.079-.075.088-.074.064-.041.072-.033,0-.025.045-.008.048-.05.072-.066.04-.1.087-.033.111-.041.016-.008.032-.107.032-.025.064.025.071-.05.056-.017.064-.058.056.016.087-.058.032.008.024.042L-250.8-42l-.016.107-.064.083-.056.19-.032.033-.016.124-.056.2-.008.083.016.116.032.132.008.165.016.033.08.075.048.033.1.041h.008l.064-.016h.1l.08-.075.087-.008.072-.025.055-.041.056-.058.1-.025.04-.067.111-.058.2-.19.1-.075.087-.075.064-.041.047-.075.035-.041,0,.033.032.132-.008.091.032.074.024.108.008.033.056.075.127.157.111.066.111.1.112-.05.143-.008.064-.025.175-.025.111-.1.08-.025.135-.075.1-.025.1-.116.063.008.04-.033.032-.082.087-.066.008.016.1.041.088.3.071-.008.048.124.143.075.064.041.047.017.128-.017.087-.025.072.05.048.008.088-.016.278-.108.064-.016.23-.133.159-.058.079-.116.1-.008.056-.05.111-.066.016-.016.016-.033.016-.066.048-.017.031.042.064-.05.048-.055.016.129h-.04l-.016.083.016.058.024.224.056.091.056.141.024.033.1.058.191.041.215-.05.159-.116.048-.082.112-.017.008-.008.031-.066.032-.083.072-.042.055-.025.016-.082.08-.025.007-.008.016-.075.032-.107.079.041.048-.091.024-.058.127-.124.079-.116.024-.033.032-.025.056-.025.04-.1.032-.017.008-.058.048.025.008.017.008.033.039.331.056.157.024.116.008.025.127.157.056.041.2.066.072.016.1-.025.1-.008.135-.083.1-.008.1-.132.048.016.048-.058.031-.075.088-.008.047-.108.1-.066.079-.091.111-.066.04-.1.1-.075.056-.066.008-.041v-.016l-.024-.166.024-.091-.056-.041h-.008l-.04.008-.167.133-.079.116-.279.248-.064.075-.079.033-.064.1-.079.05-.064.058-.183.091-.072.058-.056-.075.016-.091-.048-.174.008-.05v-.108l.04-.24.056-.347.024-.075.04-.041.04-.1.127-.174-.008-.141.143-.058.024-.016.056-.174.064-.008.032-.017.016-.025.016-.157.024-.033.056-.008.048-.1.119-.19.056-.141.056-.042.008-.116.1-.132.056-.116.055-.05v-.008l.128-.364.167-.389.008-.1Zm-17.436,3.384.024-.091.064-.107.048-.124.016-.025.04-.033.143-.107.1-.075.143-.058.072-.041.111-.017.1-.033.04.016.024.042-.1.066-.048.041-.056.075-.064.017-.024.05-.056.041-.1.083-.064.033-.167.149-.143.058-.071.05Zm11.781,0,.024-.091.064-.107.048-.124.016-.025.04-.033.143-.107.1-.075.143-.058.072-.041.111-.016.1-.033.04.016.024.042-.1.066-.048.041-.056.075-.064.016-.024.05-.055.041-.1.083-.064.033-.167.149-.143.058-.072.05Zm3.532-.621-.04.1-.079.108-.1.157-.072.066-.024.083-.064.05-.056.075-.024.083-.008.016-.127.091-.318.331-.31.256-.159.1-.04.008-.04-.008-.056-.058-.024-.1.008-.033.063-.141.032-.124.064-.1.039-.091.072-.091.039-.116.1-.075.064-.091.048-.1.088-.025.1-.091.079-.058.056-.091.1.008.175-.1.135-.008.2-.067Zm1.758-2.243-.024.091-.048.05-.119.281-.294.431-.056.116-.079.041-.056.082-.072.091-.047.108-.056.041.032-.1.064-.132.111-.116v-.1l.056-.05v-.091l.064-.058.055-.066.056-.05.032-.091.048-.091.072-.165.04-.025.064-.124.048-.041.064-.133.048-.016Zm-7.875.679.016-.107v-.025l-.016-.075-.071-.083-.088-.066-.079-.033h-.008l-.088.033-.1.041-.032.042-.024.165v.016l.04.215.079.074.151.067.04-.008.055-.025.088-.066.008-.016Zm-8.734.166.016-.058-.032-.149-.056-.1-.056-.066-.032-.05-.079-.033-.079-.025-.072.008-.1-.016-.12.033-.072.008-.143.066-.159-.033-.358.075h-.1l-.064-.025-.1.058-.207.042-.079.033-.088-.025h-.072l-.278.058-.326.05-.278.083-.342.041-.064.041h-.056l-.008-.025.016-.049.056-.066.112-.091.024-.025.024-.149-.048-.19-.1-.107-.08-.033-.056.066-.088.108-.135.256-.119.107-.135.166-.071.041-.119.066-.278.058-.1.058-.135.033-.111.041-.135-.016h-.04l-.024.016-.072.1-.056-.049-.1.066-.048.083-.064.124-.008.041.016.075.032.041.055.025h.1l.079.008.112-.058.2-.041.087-.033h.127l.056-.016.079-.008-.016.058-.056.042-.1.2-.088.091L-263-42.7l-.071.075-.024.132.056.058-.04.058-.088-.017-.04.083-.032.058-.03.088-.033.019-.047.107h0l-.1.041-.1.091-.008.116-.024-.058h-.032l-.047.033-.1.075-.072.091-.111.033-.072.074-.119.05-.071.091-.12.033-.032.025-.032.025-.04.075-.087.017-.079.041-.072.091h-.087l-.088.008-.183.083h-.119l-.23.008-.032-.008-.024-.024-.024-.075.04-.149.016-.091.1-.008.08-.083.048.017.048-.042.056-.016.008-.083.024-.049.08.008.064-.05.1-.091.087-.041.016-.058.072-.05h.071l.056-.091.032-.041.016-.008.1-.008.079-.066.064-.033.056-.075.08-.025.143-.124.087-.149.024-.107-.016-.074-.079-.1-.088-.042-.167-.033-.064-.025-.087.008-.159.008-.072.025-.1.025h-.024l-.056-.008-.12.075-.2.082-.167.149-.079.05-.032.025v.016l0,.009-.093.032-.032-.008-.072.075-.1.066-.239.124-.071.058-.087.075-.056.008-.048.025-.064.042-.039.066-.1.066-.056.066-.032.016-.024-.008.024-.1.088-.157.1-.34.064-.082.111-.314.072-.116.039-.124.1-.182.024-.182.024-.158-.079-.215-.111-.215-.064-.058-.056-.008-.1.025-.088.066-.1.165-.135.2-.064.141-.135.165-.255.389-.056.041-.04.083-.064.058-.087.141-.024.082-.119.025-.072.149-.517.587-.032.124-.111.041h-.008l-.04.066-.056.116-.1.017-.056.049-.1.058-.143.149-.1.058-.079.066-.127.041-.072-.133.016-.141.016-.082.024-.091-.008-.083v-.008l.04-.1.1-.273.064-.083.032-.124.08-.133.039-.182.175-.273.08-.132-.008-.124.119-.1.072-.108.1-.116.048-.091.088-.05.032-.083.079-.1.056-.082.087-.083.1-.215.1-.083.04-.075.111-.058.175-.2.072-.058.048-.075.1-.017.056-.082.2-.174.183-.174.1-.033.175-.116.2-.083.1-.008.072-.05.032-.016.032-.008.04.017.032.025.008.041v.017l-.032.074-.056.107-.2.215-.055.157.032.075.031.033.1.033.1.016.056-.082.039-.091.136-.331.008-.116.04-.083-.024-.083-.024-.124-.055-.107-.032-.1-.072-.033-.127-.041-.064-.025-.1.025-.087-.016-.072.033-.063.008-.072.067h-.071l-.127.083-.127.05-.056.05-.1.058-.04.075h-.1l-.008.083-.1.016-.056.017-.1.1-.064.025-.064.091-.135.05-.1.124-.477.472-.032.075-.056.058v.091l-.056-.016-.024.016-.048.083-.032.074-.056.017-.048.074-.143.166-.127.265-.1.141-.064.108.008.075-.072.05-.016.141-.04.008-.056.141v.091l-.1.016-.032.074-.064.1-.016.091-.048.083.008.091h.04l.016.05h-.04l-.008.033.024.05-.064-.016-.079.1-.016.108-.056.141-.032.082-.008.29v.033l.008.132.008.017.079.1.1.132.088.058.087.066.135.017.1.075.087.008h.1l.079-.025.119-.05.087-.016.1-.124.151-.141.024-.066.071-.025.024-.107.1-.041.111-.141.072-.033.024-.025.032-.066.032-.082.08-.05.048-.083.1-.058.024-.025.008-.041v-.067l.072-.025.016-.008.008-.016v-.016l-.008-.083v-.016l.032-.041.048-.033.079-.017.231-.281.159-.107.056-.083.056-.075v.066l-.04.124-.087.141-.016.091-.04.082-.048.124-.064.107-.008.1-.1.149-.008.083-.079.14-.016.091-.031.091-.048.016-.151.158-.151.141-.159.19-.231.215-.04.058-.151.174-.056.058v.075l-.024.058-.1.05-.127.232-.127.107-.024.083-.08.141-.088.133-.143.372-.063.107-.032.133-.072.174v.166l-.032.141.016.083-.024.066.04.082.016.1.048.075.048.149.008.024.064.033.183.058.024-.008.016-.008.024-.058.111-.008.04-.008.016-.016.056-.091.079-.033.016-.107.087-.033.1-.19.159-.215.08-.141.1-.116.056-.107.032-.124.191-.29.119-.323.072-.082.04-.157.111-.157.087-.331.143-.265-.008-.1.064-.1.12-.364.071-.107.064-.107.016-.025.087-.049.135-.058.111-.1.08-.058.056-.008.064-.066.056-.05.087-.058.056-.058.119-.008-.008.008-.056.215-.087.091-.04.083-.024.124.008.058.016.033.1.041.087.3.071-.008.048.124.143.075.064.042.048.016.127-.017.088-.025.071.05.048.008.088-.016.278-.107.064-.016.23-.133.159-.058.08-.116.1-.008.056-.05.112-.066.016-.016.016-.033.016-.066.048-.016.032.041.063-.049.088-.1.05-.063.005.038.032.132-.008.091.032.074.024.108.008.033.056.075.127.157.112.066.111.1.112-.049.143-.008.064-.025.175-.025.111-.1.079-.025.135-.074.1-.025.1-.116.064.008.04-.033.032-.083.087-.066.088-.1.159-.149.048-.083.088-.074.031-.033.024-.05v-.083l.024-.091v-.008l-.016-.041L-261.4-42l-.04-.008h-.008l-.1.108-.3.256-.048.075-.08.008-.039.008-.032.025-.056.074-.1.042-.064.05-.079.033-.278.174h-.088l-.135.066h-.222l-.1-.033-.008-.091v-.066l.024-.058-.008-.1.048-.05.032-.091.064-.108v-.124l.127-.116.008-.083.056-.049.04-.083.04-.025.024-.074.064-.075.088-.223.1-.1.064-.132.088-.058.135-.248.079-.041.024-.1.048-.033.04-.091h.079l.112-.067.143.017.159-.066.135-.008.366-.1.167-.008.143-.05.135.008.1-.033h.191l.143-.058.1-.041.064.033h.008l.072-.016.2.008.342-.083.088.008.334-.041.135.016.247.008.1.008h.008l.072-.017Zm-9,3.285-.056.066-.064.05-.016.133-.127.265.008.107-.1.074-.024.033-.016.058-.008.083-.024.033v.066l-.072.033-.047.075-.072.124-.079.24-.056.066-.008.066-.064.058-.016.083-.04.116v.141l-.024.016-.056.008-.056.1-.072.149-.151.19-.056.058-.064.049h-.008l-.04-.05.008-.223-.016-.083.016-.083v-.083l.1-.265.016-.1.1-.141.063-.265.1-.141.056-.141.143-.207.024-.075h.008l.047-.016.08-.016.032-.091.064-.141.047-.033.1-.025.024-.025.024-.116.111-.05.048-.1.087-.066.088-.041.016-.066.008-.008Zm1.635-1.266,0,.016-.007.008Zm.489,0,.024-.091.064-.108.048-.124.016-.025.04-.033.143-.107.1-.075.143-.058.071-.041.112-.017.1-.033.04.016.024.041-.1.066-.048.041-.056.075-.064.017-.024.05-.056.041-.1.082-.064.033-.167.149-.143.058-.072.05Zm-2.581,16.434h-1.974l-.006-14.235c-.629.811-2.255.812-3.483.812h-2.033v.293h1.974L-273.3-25.4h-1.974v.293l7.491,0Zm-17.38-13.584a3.2,3.2,0,0,1,3.181-3.358c3.015,0,4.356,3.056,4.955,5.694h.43l0-5.6h-.431c0,.324-.047.971-.765.971-1.077,0-1.843-1.343-4.259-1.342a4.977,4.977,0,0,0-5.261,5.354c0,5.974,9.548,3.188,9.551,9.005,0,2.19-1.222,3.681-3.279,3.682-3.23,0-5.214-3.9-5.79-6.714h-.431l0,6.62h.431a.833.833,0,0,1,.885-.922c.957,0,2.919,1.293,5,1.292,3.374,0,5.479-1.891,5.477-6.1,0-5.824-9.692-4.107-9.694-8.579m19.971.159h-2.034v.293h1.974l.006,13.131h-1.973v.293l7.191,0v-.293H-261.7l0-8.81c0-1.59,1.5-3.866,3.175-3.867.869,0,1.769.373,1.77,2.555l0,10.12h-1.614v.293l7.131,0v-.293h-1.974l0-8.966c0-3.367-1.435-4.831-3.636-4.83a5.234,5.234,0,0,0-4.793,2.9h-.06l0-3.336c-.629.811-2.254.812-3.483.812" transform="translate(287.312 47.669)" fill="#fff"/></g></g></svg>